<?xml version="1.0" standalone="no"?>
<!DOCTYPE svg PUBLIC "-//W3C//DTD SVG 20010904//EN"
 "http://www.w3.org/TR/2001/REC-SVG-20010904/DTD/svg10.dtd">
<svg version="1.0" xmlns="http://www.w3.org/2000/svg"
 width="225.000000pt" height="225.000000pt" viewBox="0 0 225.000000 225.000000"
 preserveAspectRatio="xMidYMid meet">

<g transform="translate(0.000000,225.000000) scale(0.100000,-0.100000)"
fill="#000000" stroke="none">
<path d="M627 1592 c-13 -14 -17 -39 -17 -105 l0 -87 -103 0 c-144 0 -147 -3
-147 -129 0 -122 7 -131 100 -131 58 0 67 -3 97 -32 l33 -32 0 32 c0 21 5 32
14 32 35 0 46 29 46 126 0 61 4 93 10 89 6 -3 10 -20 10 -38 l0 -31 33 31 c28
27 41 31 99 35 38 2 72 8 77 13 8 8 15 139 12 202 -2 34 -32 43 -140 43 -92 0
-110 -3 -124 -18z m150 -26 c5 -4 53 -141 53 -152 0 -22 -38 -16 -45 6 -4 14
-15 20 -35 20 -19 0 -29 -6 -33 -20 -3 -12 -14 -20 -26 -20 -26 0 -26 -2 4 84
14 39 28 77 30 84 4 11 37 10 52 -2z m-257 -221 c0 -10 11 -15 35 -15 24 0 35
-5 35 -15 0 -8 -6 -15 -14 -15 -8 0 -22 -15 -31 -32 -15 -30 -15 -34 2 -45 9
-7 20 -13 25 -13 4 0 8 -7 8 -15 0 -19 -4 -19 -41 1 -28 14 -34 14 -64 0 -40
-19 -45 -20 -45 -3 0 8 12 19 26 26 19 8 24 16 19 29 -4 9 -10 25 -12 35 -3 9
-14 17 -24 17 -11 0 -19 7 -19 15 0 10 11 15 35 15 24 0 35 5 35 15 0 8 7 15
15 15 8 0 15 -7 15 -15z"/>
<path d="M747 1505 c-8 -20 -4 -29 11 -24 5 2 6 13 2 23 -6 19 -7 19 -13 1z"/>
<path d="M490 1293 c0 -5 4 -14 9 -22 7 -11 11 -9 20 8 10 18 9 21 -9 21 -11
0 -20 -3 -20 -7z"/>
<path d="M493 1550 c-13 -5 -23 -11 -23 -12 0 -2 22 -4 49 -5 36 -1 48 2 45
11 -6 14 -41 17 -71 6z"/>
<path d="M795 1193 c-23 -12 -35 -14 -58 -5 -21 8 -27 8 -24 -1 6 -18 85 -13
105 6 20 21 15 21 -23 0z"/>
<path d="M360 950 l0 -70 45 0 c25 0 45 5 45 10 0 6 -13 10 -30 10 l-30 0 0
60 c0 47 -3 60 -15 60 -12 0 -15 -14 -15 -70z"/>
<path d="M513 1003 c-3 -10 -14 -40 -25 -66 -22 -58 -22 -57 -3 -57 8 0 15 7
15 15 0 10 11 15 35 15 24 0 35 -5 35 -15 0 -8 7 -15 16 -15 9 0 14 6 11 13
-3 6 -13 38 -23 69 -14 42 -24 58 -37 58 -10 0 -20 -8 -24 -17z m37 -55 c0
-10 -7 -18 -15 -18 -16 0 -19 17 -9 45 5 13 8 14 15 3 5 -7 9 -21 9 -30z"/>
<path d="M620 950 c0 -54 3 -70 14 -70 11 0 16 14 18 48 l3 47 30 -47 c43 -68
55 -63 55 22 0 56 -3 70 -15 70 -11 0 -15 -12 -15 -47 l0 -48 -31 48 c-45 68
-59 63 -59 -23z"/>
<path d="M787 1002 c-23 -25 -22 -85 1 -105 24 -22 65 -21 85 1 26 29 22 52
-10 52 -25 -1 -26 -2 -10 -11 14 -8 16 -14 6 -25 -33 -40 -84 11 -61 61 12 25
45 34 57 15 3 -5 13 -10 22 -10 14 0 14 3 -2 20 -23 25 -67 26 -88 2z"/>
<path d="M920 960 c0 -48 4 -61 19 -70 28 -14 57 -12 75 6 18 17 23 124 6 124
-5 0 -10 -19 -10 -43 0 -97 -62 -104 -68 -8 -4 71 -22 64 -22 -9z"/>
<path d="M1080 954 c-12 -36 -20 -68 -17 -71 9 -8 27 7 27 23 0 9 11 14 30 14
19 0 30 -5 30 -14 0 -16 18 -31 27 -23 3 3 -5 35 -17 71 -16 49 -26 66 -40 66
-14 0 -24 -17 -40 -66z m54 14 c9 -35 8 -38 -14 -38 -11 0 -20 3 -20 8 0 19
13 52 20 52 4 0 10 -10 14 -22z"/>
<path d="M1220 1000 c-41 -41 -12 -120 44 -120 29 0 56 24 56 51 0 14 -7 19
-27 18 -18 -1 -22 -3 -10 -6 27 -7 16 -37 -14 -41 -19 -2 -28 3 -37 22 -22 48
25 106 54 67 6 -7 17 -12 24 -9 20 6 -17 38 -46 38 -13 0 -33 -9 -44 -20z"/>
<path d="M1350 950 l0 -70 45 0 c25 0 45 5 45 10 0 6 -16 10 -35 10 -28 0 -35
4 -35 20 0 16 7 20 35 20 19 0 35 5 35 10 0 6 -15 10 -34 10 -25 0 -35 5 -39
20 -4 17 0 20 34 20 21 0 39 5 39 10 0 6 -20 10 -45 10 l-45 0 0 -70z"/>
<path d="M372 828 c-23 -23 -13 -45 28 -62 22 -9 40 -20 40 -25 0 -18 -32 -20
-56 -5 -22 15 -24 15 -24 0 0 -25 44 -42 75 -28 39 18 34 57 -10 73 -48 18
-48 44 1 34 28 -5 35 -3 32 7 -6 17 -70 22 -86 6z"/>
<path d="M503 770 c11 -38 26 -70 32 -70 7 0 19 24 27 53 l15 52 15 -49 c8
-28 20 -52 26 -54 6 -2 20 26 31 63 25 80 25 75 6 75 -10 0 -17 -14 -21 -40
-9 -56 -20 -58 -33 -5 -15 59 -35 58 -51 -2 l-13 -48 -14 48 c-8 26 -20 47
-27 47 -11 0 -9 -15 7 -70z"/>
<path d="M692 773 c2 -42 8 -68 16 -71 9 -3 12 15 12 67 0 57 -3 71 -15 71
-13 0 -15 -12 -13 -67z"/>
<path d="M740 830 c0 -5 11 -10 25 -10 24 0 25 -3 25 -61 0 -37 4 -58 10 -54
6 3 10 31 10 61 0 51 1 54 25 54 14 0 25 5 25 10 0 6 -27 10 -60 10 -33 0 -60
-4 -60 -10z"/>
<path d="M886 818 c-23 -32 -20 -65 9 -93 29 -30 45 -31 76 -6 30 24 19 39
-12 17 -35 -24 -61 -5 -57 42 2 30 7 38 26 40 13 2 30 -2 38 -9 19 -16 30 -4
14 16 -19 23 -76 19 -94 -7z"/>
<path d="M1022 773 c3 -69 19 -88 28 -36 4 22 11 28 30 28 19 0 26 -6 30 -28
9 -52 25 -33 28 36 2 55 0 67 -13 67 -10 0 -15 -10 -15 -30 0 -27 -3 -30 -30
-30 -27 0 -30 3 -30 30 0 20 -5 30 -15 30 -13 0 -15 -12 -13 -67z"/>
</g>
</svg>
