<?xml version="1.0" standalone="no"?>
<!DOCTYPE svg PUBLIC "-//W3C//DTD SVG 20010904//EN"
 "http://www.w3.org/TR/2001/REC-SVG-20010904/DTD/svg10.dtd">
<svg version="1.0" xmlns="http://www.w3.org/2000/svg"
 width="512.000000pt" height="512.000000pt" viewBox="0 0 512.000000 512.000000"
 preserveAspectRatio="xMidYMid meet">

<g transform="translate(0.000000,512.000000) scale(0.100000,-0.100000)"
fill="#000000" stroke="none">
<path d="M1855 5110 c-610 -52 -1175 -385 -1515 -893 -80 -120 -190 -344 -234
-479 -151 -457 -129 -983 58 -1420 381 -888 1311 -1376 2261 -1187 258 51 574
193 782 351 35 26 67 48 71 48 4 0 78 -71 164 -158 l157 -157 -15 -55 c-18
-66 -12 -144 16 -207 24 -56 161 -255 299 -438 118 -156 273 -322 365 -392
165 -125 317 -149 466 -73 100 52 101 54 19 68 -195 33 -399 211 -679 587
-172 231 -268 383 -286 454 -28 112 2 224 85 314 l40 43 -159 159 c-88 88
-160 163 -160 167 0 4 20 34 45 66 250 329 396 777 395 1212 0 124 -3 130 -59
130 -192 0 -431 77 -562 181 l-36 28 20 -97 c26 -130 28 -369 3 -502 -105
-578 -547 -1022 -1131 -1136 -172 -34 -425 -21 -635 32 -511 128 -874 527
-976 1075 -28 144 -25 430 5 569 62 290 184 523 371 710 187 187 399 299 679
357 107 22 153 26 311 27 160 1 199 -2 289 -22 247 -56 472 -171 642 -331 l74
-68 0 121 c0 181 43 336 131 479 43 70 52 56 -87 142 -273 169 -568 266 -899
295 -127 11 -182 11 -315 0z"/>
<path d="M3813 4709 c-64 -31 -83 -70 -83 -165 0 -113 -9 -124 -107 -124 -92
0 -152 -24 -183 -74 -17 -29 -20 -50 -20 -157 0 -106 3 -129 20 -157 34 -55
73 -72 168 -72 112 0 122 -10 122 -122 0 -95 17 -134 72 -168 29 -17 118 -29
118 -15 0 2 -14 28 -31 57 -41 69 -82 167 -105 254 -15 54 -19 103 -18 229 0
145 3 168 28 250 15 50 49 132 77 184 27 52 49 95 49 97 0 12 -72 1 -107 -17z"/>
</g>
</svg>
